<svg width="640" height="420" viewBox="0 0 640 420" fill="none" xmlns="http://www.w3.org/2000/svg">
  <defs>
    <linearGradient id="bg" x1="0" y1="0" x2="640" y2="420" gradientUnits="userSpaceOnUse">
      <stop stop-color="#F3F4F6"/>
      <stop offset="1" stop-color="#E5E7EB"/>
    </linearGradient>
    <linearGradient id="bubble" x1="0" y1="0" x2="1" y2="1">
      <stop stop-color="#0EA5E9"/>
      <stop offset="1" stop-color="#2563EB"/>
    </linearGradient>
    <linearGradient id="bubble2" x1="0" y1="0" x2="1" y2="1">
      <stop stop-color="#10B981"/>
      <stop offset="1" stop-color="#059669"/>
    </linearGradient>
  </defs>

  <rect x="0" y="0" width="640" height="420" rx="24" fill="url(#bg)"/>

  <circle cx="86" cy="84" r="18" fill="#D1D5DB"/>
  <circle cx="562" cy="94" r="12" fill="#CBD5E1"/>
  <circle cx="76" cy="332" r="14" fill="#D1D5DB"/>

  <rect x="120" y="90" width="250" height="110" rx="20" fill="url(#bubble)"/>
  <path d="M170 200 L146 228 L148 196" fill="url(#bubble)"/>

  <rect x="286" y="218" width="234" height="106" rx="20" fill="url(#bubble2)"/>
  <path d="M470 324 L500 350 L490 318" fill="url(#bubble2)"/>

  <text x="210" y="156" text-anchor="middle" font-family="Arial, sans-serif" font-size="54" font-weight="700" fill="white">?</text>
  <text x="400" y="282" text-anchor="middle" font-family="Arial, sans-serif" font-size="44" font-weight="700" fill="white">FAQ</text>

  <rect x="120" y="280" width="126" height="14" rx="7" fill="#9CA3AF" opacity="0.6"/>
  <rect x="120" y="306" width="94" height="14" rx="7" fill="#9CA3AF" opacity="0.45"/>

  <rect x="428" y="102" width="102" height="14" rx="7" fill="#94A3B8" opacity="0.5"/>
  <rect x="428" y="128" width="78" height="14" rx="7" fill="#94A3B8" opacity="0.35"/>
</svg>
